<svg width="25" height="25" viewBox="0 0 25 25" fill="none" xmlns="http://www.w3.org/2000/svg">
<path d="M8.33434 12.5C8.33434 10.1989 10.1993 8.333 12.5005 8.333C14.8017 8.333 16.6677 10.1989 16.6677 12.5C16.6677 14.8011 14.8017 16.667 12.5005 16.667C10.1993 16.667 8.33434 14.8011 8.33434 12.5ZM6.08163 12.5C6.08163 16.045 8.95533 18.9186 12.5005 18.9186C16.0457 18.9186 18.9194 16.045 18.9194 12.5C18.9194 8.95497 16.0457 6.08138 12.5005 6.08138C8.95533 6.08138 6.08163 8.95497 6.08163 12.5ZM17.6734 5.82694C17.6734 6.65489 18.3448 7.32734 19.1738 7.32734C20.0018 7.32734 20.6743 6.65489 20.6743 5.82694C20.6743 4.99899 20.0028 4.32754 19.1738 4.32754C18.3448 4.32754 17.6734 4.99899 17.6734 5.82694ZM7.44982 22.6747C6.23107 22.6191 5.56868 22.4162 5.12844 22.2445C4.54481 22.0174 4.1288 21.7468 3.69058 21.3096C3.25336 20.8724 2.98174 20.4564 2.75556 19.8728C2.58391 19.4326 2.38095 18.7702 2.32542 17.5515C2.26483 16.2338 2.25272 15.838 2.25272 12.5C2.25272 9.16196 2.26584 8.76717 2.32542 7.44851C2.38095 6.22981 2.58492 5.56846 2.75556 5.12722C2.98275 4.54362 3.25336 4.12763 3.69058 3.68942C4.12779 3.25222 4.5438 2.98061 5.12844 2.75444C5.56868 2.58279 6.23107 2.37985 7.44982 2.32431C8.76752 2.26373 9.16333 2.25162 12.5005 2.25162C15.8387 2.25162 16.2335 2.26474 17.5522 2.32431C18.771 2.37985 19.4323 2.5838 19.8736 2.75444C20.4572 2.98061 20.8732 3.25222 21.3114 3.68942C21.7487 4.12662 22.0193 4.54362 22.2465 5.12722C22.4181 5.56745 22.6211 6.22981 22.6766 7.44851C22.7372 8.76717 22.7493 9.16196 22.7493 12.5C22.7493 15.837 22.7372 16.2328 22.6766 17.5515C22.6211 18.7702 22.4171 19.4326 22.2465 19.8728C22.0193 20.4564 21.7487 20.8724 21.3114 21.3096C20.8742 21.7468 20.4572 22.0174 19.8736 22.2445C19.4333 22.4162 18.771 22.6191 17.5522 22.6747C16.2345 22.7353 15.8387 22.7474 12.5005 22.7474C9.16333 22.7474 8.76752 22.7353 7.44982 22.6747ZM7.34682 0.075727C6.01599 0.136309 5.10723 0.347334 4.31257 0.656301C3.49065 0.975364 2.79393 1.40347 2.09823 2.09814C1.40353 2.79281 0.975403 3.4895 0.656327 4.3124C0.347348 5.10703 0.136314 6.01575 0.07573 7.34653C0.0141363 8.67932 0 9.10541 0 12.5C0 15.8946 0.0141363 16.3207 0.07573 17.6535C0.136314 18.9842 0.347348 19.893 0.656327 20.6876C0.975403 21.5095 1.40252 22.2072 2.09823 22.9019C2.79292 23.5965 3.48964 24.0236 4.31257 24.3437C5.10824 24.6527 6.01599 24.8637 7.34682 24.9243C8.68068 24.9849 9.10578 25 12.5005 25C15.8962 25 16.3213 24.9859 17.6542 24.9243C18.985 24.8637 19.8938 24.6527 20.6884 24.3437C21.5104 24.0236 22.2071 23.5965 22.9028 22.9019C23.5975 22.2072 24.0246 21.5095 24.3447 20.6876C24.6537 19.893 24.8657 18.9842 24.9253 17.6535C24.9859 16.3197 25 15.8946 25 12.5C25 9.10541 24.9859 8.67932 24.9253 7.34653C24.8647 6.01575 24.6537 5.10703 24.3447 4.3124C24.0246 3.49051 23.5975 2.79382 22.9028 2.09814C22.2081 1.40347 21.5104 0.975364 20.6894 0.656301C19.8938 0.347334 18.985 0.135299 17.6552 0.075727C16.3223 0.0151454 15.8962 0 12.5015 0C9.10578 0 8.68068 0.0141357 7.34682 0.075727Z" fill="white"/>
</svg>
