<svg width="29" height="25" viewBox="0 0 29 25" fill="none" xmlns="http://www.w3.org/2000/svg">
<path d="M27.2573 0.589334C26.9014 0.294633 26.4719 0.101491 26.0145 0.0304605C25.557 -0.0405696 25.0888 0.0131708 24.6596 0.185963L2.2579 9.18794C1.77882 9.38412 1.37102 9.72068 1.08862 10.1529C0.806214 10.5852 0.662565 11.0927 0.676737 11.6081C0.69091 12.1235 0.862233 12.6225 1.16797 13.0387C1.4737 13.455 1.89939 13.7688 2.38853 13.9386L6.91989 15.5072L9.44558 23.8203C9.47991 23.9313 9.52972 24.037 9.59356 24.1343C9.60325 24.1492 9.61691 24.1603 9.62721 24.1748C9.70097 24.2772 9.79011 24.3678 9.89151 24.4433C9.92035 24.4651 9.94796 24.4856 9.97878 24.5051C10.0975 24.5834 10.2289 24.6407 10.3672 24.6744L10.382 24.6757L10.3904 24.6792C10.4736 24.6961 10.5582 24.7046 10.6431 24.7047C10.6513 24.7047 10.6585 24.7009 10.6666 24.7007C10.7947 24.6985 10.9216 24.6765 11.043 24.6356C11.0712 24.6261 11.0954 24.6101 11.1228 24.5985C11.2132 24.5612 11.299 24.5133 11.3781 24.456C11.4415 24.4028 11.505 24.3496 11.5684 24.2965L14.9462 20.5847L19.9842 24.469C20.4277 24.8127 20.9736 24.9995 21.5357 25C22.1247 24.9992 22.6955 24.797 23.1525 24.4271C23.6095 24.0572 23.9248 23.5423 24.0456 22.9685L28.124 3.04122C28.2165 2.59272 28.1846 2.12765 28.032 1.69577C27.8793 1.26388 27.6115 0.881433 27.2573 0.589334ZM11.1388 15.9033C10.9654 16.0751 10.8469 16.2941 10.7982 16.5327L10.4113 18.4039L9.43117 15.1777L14.5129 12.5438L11.1388 15.9033ZM21.5162 22.5019L15.5627 17.9116C15.3136 17.7201 15.0012 17.6289 14.6876 17.6564C14.374 17.6839 14.0824 17.8279 13.8707 18.0599L12.789 19.2483L13.1713 17.3989L22.0252 8.58647C22.2366 8.37641 22.3653 8.09796 22.3882 7.80156C22.4111 7.50516 22.3265 7.2104 22.1499 6.9707C21.9732 6.73099 21.7162 6.56217 21.4253 6.49483C21.1344 6.42748 20.8288 6.46606 20.564 6.60358L7.8571 13.1885L3.20153 11.4928L25.6752 2.54425L21.5162 22.5019Z" fill="white"/>
</svg>
