<svg width="22" height="25" viewBox="0 0 22 25" fill="none" xmlns="http://www.w3.org/2000/svg">
<path d="M4.01805 17.4036C4.01786 17.9127 4.11798 18.4169 4.31269 18.8873C4.50739 19.3577 4.79286 19.7852 5.1528 20.1452C5.51273 20.5053 5.94007 20.7909 6.41042 20.9858C6.88076 21.1807 7.38489 21.281 7.894 21.281C8.93274 21.2965 9.93619 20.9043 10.6891 20.1886C11.442 19.4728 11.8844 18.4904 11.9213 17.4522L11.9658 0H15.5459C15.7085 1.55524 16.4127 3.00381 17.5353 4.09238C18.6579 5.18096 20.1274 5.84023 21.6869 5.95489V10.1142C21.4824 10.1341 21.2771 10.1443 21.0717 10.1447C19.9638 10.1455 18.8732 9.87008 17.8984 9.34343C16.9237 8.81678 16.0956 8.05548 15.489 7.12837V17.405C15.489 18.9072 15.0436 20.3756 14.209 21.6246C13.3745 22.8735 12.1883 23.847 10.8005 24.4219C9.41268 24.9967 7.88558 25.1471 6.41229 24.8541C4.93901 24.561 3.58571 23.8377 2.52354 22.7755C1.46136 21.7133 0.738004 20.36 0.44495 18.8867C0.151896 17.4134 0.302302 15.8863 0.877149 14.4985C1.452 13.1107 2.42546 11.9246 3.67445 11.09C4.92344 10.2555 6.39186 9.81002 7.894 9.81002C8.05232 9.81002 8.20786 9.82391 8.3634 9.83363V13.5832C8.20798 13.5583 8.05125 13.5426 7.894 13.536C6.86748 13.536 5.88287 13.9432 5.15623 14.6683C4.42958 15.3934 4.02025 16.3771 4.01805 17.4036Z" fill="white"/>
</svg>
